<svg xmlns="http://www.w3.org/2000/svg" xmlns:xlink="http://www.w3.org/1999/xlink" width="400" height="400" viewBox="0 0 400 400"><defs><linearGradient id="gradient-19"><stop stop-color="#905e25" offset="0"></stop><stop stop-color="#f5ec8b" offset="0.5"></stop><stop stop-color="#905e36" offset="1"></stop></linearGradient></defs>
<rect data-name="background" width="100%" height="100%" fill="#080808"></rect><g data-name="watermark" class="watermark-logodesign" stroke="#ffffff" transform="translate(10, 320) scale(1.5) rotate(-45)" style="opacity:0.040000010281801224;"><path fill="#000000" d="M22.92,19.2q3.04,1.68,4.8,4.7t1.76,6.78t-1.76,6.78t-4.8,4.7t-6.68,1.68t-6.7-1.68t-4.84-4.7t-1.78-6.78t1.78-6.78t4.84-4.7t6.7-1.68t6.68,1.68z M11.14,21.74q-2.26,1.3-3.54,3.62t-1.28,5.32t1.28,5.32t3.54,3.6t5.1,1.28t5.08-1.28t3.52-3.6t1.28-5.32t-1.28-5.32t-3.54-3.62t-5.06-1.3q-2.84,0-5.1,1.3z M21.4,24.76l-1.8,2.32q-0.72-0.56-1.4-0.78t-1.48-0.22q-1.44,0-2.3,1.1t-0.86,3.46q0,2.32,0.82,3.44t2.26,1.12q0.96,0,1.74-0.3t1.54-0.9l1.64,2.44q-2.24,2.04-5.2,2.04q-3.2,0-5.08-2.04t-1.88-5.8q0-2.4,0.9-4.16t2.48-2.7t3.54-0.94q2.92,0,5.08,1.92z M41.2,20.32l0,22.96l10.96,0l-0.64,4.72l-16.2,0l0-27.68l5.88,0z M71.92,29.14q2.68,2.98,2.68,8.26q0,3.36-1.22,5.9t-3.52,3.94t-5.42,1.4q-4.76,0-7.46-2.98t-2.7-8.26q0-3.36,1.22-5.9t3.52-3.94t5.46-1.4q4.76,0,7.44,2.98z M61.26,32.1q-1.06,1.7-1.06,5.3t1.06,5.3t3.18,1.7t3.18-1.7t1.06-5.3t-1.04-5.3t-3.16-1.7q-2.16,0-3.22,1.7z M97.88,27.96q-2.08,0.8-6.12,0.8q2,0.88,2.96,2.18t0.96,3.26q0,2.04-1.06,3.66t-3.04,2.54t-4.62,0.92q-1.4,0-2.48-0.28q-0.8,0.52-0.8,1.4q0,0.64,0.5,1.02t1.94,0.38l3.24,0q2.36,0,4.14,0.78t2.76,2.16t0.98,3.14q0,3.24-2.78,5.06t-8.02,1.82q-3.76,0-5.94-0.78t-3.06-2.26t-0.88-3.72l5.08,0q0,1.04,0.4,1.66t1.46,0.92t3.06,0.3q2.76,0,3.86-0.68t1.1-1.92q0-1.12-0.84-1.72t-2.48-0.6l-3.12,0q-3.16,0-4.72-1.18t-1.56-2.98q0-1.12,0.66-2.18t1.82-1.78q-1.96-1.08-2.86-2.54t-0.9-3.5q0-2.32,1.14-4.06t3.2-2.68t4.7-0.94q3.28,0.08,5.4-0.56t4.52-2z M84.14,30.98q-0.94,1.02-0.94,2.78q0,1.8,0.94,2.84t2.58,1.04q1.72,0,2.6-1t0.88-2.96q0-3.72-3.52-3.72q-1.6,0-2.54,1.02z M117.04,29.14q2.68,2.98,2.68,8.26q0,3.36-1.22,5.9t-3.52,3.94t-5.42,1.4q-4.76,0-7.46-2.98t-2.7-8.26q0-3.36,1.22-5.9t3.52-3.94t5.46-1.4q4.76,0,7.44,2.98z M106.38,32.1q-1.06,1.7-1.06,5.3t1.06,5.3t3.18,1.7t3.18-1.7t1.06-5.3t-1.04-5.3t-3.16-1.7q-2.16,0-3.22,1.7z M141.78,23.26q3.9,2.94,3.9,10.78q0,7.68-3.82,10.82t-9.78,3.14l-7.92,0l0-27.68l7.24,0q6.48,0,10.38,2.94z M130.04,24.64l0,19.04l2.4,0q3.4,0,5.26-2.1t1.86-7.54q0-3.76-0.94-5.84t-2.5-2.82t-3.8-0.74l-2.28,0z M167.84,39.12l-13.24,0q0.28,2.88,1.56,4.08t3.48,1.2q1.36,0,2.56-0.44t2.6-1.4l2.36,3.2q-3.56,2.88-8.04,2.88q-5,0-7.68-3t-2.68-8.12q0-3.24,1.14-5.82t3.32-4.06t5.18-1.48q4.52,0,7.04,2.84t2.52,7.92q0,0.4-0.12,2.2z M162.32,35.32q0-5.28-3.8-5.28q-1.76,0-2.74,1.3t-1.18,4.22l7.72,0l0-0.24z M186.8,28.72l-2.16,3.24q-2.68-1.68-5.28-1.68q-1.4,0-2.16,0.52t-0.76,1.4q0,0.64,0.34,1.08t1.28,0.84t2.82,0.96q3.36,0.92,5,2.46t1.64,4.22q0,2.12-1.22,3.68t-3.3,2.38t-4.64,0.82q-2.68,0-4.88-0.82t-3.76-2.26l2.8-3.12q2.68,2.08,5.68,2.08q1.6,0,2.54-0.62t0.94-1.7q0-0.84-0.36-1.32t-1.32-0.9t-3-0.98q-3.2-0.88-4.74-2.5t-1.54-4.02q0-1.8,1.04-3.24t2.94-2.26t4.42-0.82q4.48,0,7.68,2.56z M196.92,26.8l0,21.2l-5.68,0l0-21.2l5.68,0z M196.54,16.82q0.98,0.94,0.98,2.38t-0.98,2.38t-2.5,0.94t-2.48-0.94t-0.96-2.38t0.96-2.38t2.48-0.94t2.5,0.94z M221.48,27.96q-2.08,0.8-6.12,0.8q2,0.88,2.96,2.18t0.96,3.26q0,2.04-1.06,3.66t-3.04,2.54t-4.62,0.92q-1.4,0-2.48-0.28q-0.8,0.52-0.8,1.4q0,0.64,0.5,1.02t1.94,0.38l3.24,0q2.36,0,4.14,0.78t2.76,2.16t0.98,3.14q0,3.24-2.78,5.06t-8.02,1.82q-3.76,0-5.94-0.78t-3.06-2.26t-0.88-3.72l5.08,0q0,1.04,0.4,1.66t1.46,0.92t3.06,0.3q2.76,0,3.86-0.68t1.1-1.92q0-1.12-0.84-1.72t-2.48-0.6l-3.12,0q-3.16,0-4.72-1.18t-1.56-2.98q0-1.12,0.66-2.18t1.82-1.78q-1.96-1.08-2.86-2.54t-0.9-3.5q0-2.32,1.14-4.06t3.2-2.68t4.7-0.94q3.28,0.08,5.4-0.56t4.52-2z M207.74,30.98q-0.94,1.02-0.94,2.78q0,1.8,0.94,2.84t2.58,1.04q1.72,0,2.6-1t0.88-2.96q0-3.72-3.52-3.72q-1.6,0-2.54,1.02z M240.48,27.86q1.56,1.7,1.56,4.7l0,15.44l-5.68,0l0-14.48q0-1.72-0.58-2.42t-1.74-0.7q-1.2,0-2.18,0.74t-1.9,2.22l0,14.64l-5.68,0l0-21.2l4.92,0l0.44,2.68q1.32-1.64,2.9-2.48t3.58-0.84q2.8,0,4.36,1.7z M251.84,42.8q1,1,1,2.4t-1,2.42t-2.44,1.02q-1.4,0-2.4-1.02t-1-2.42t1-2.4t2.4-1q1.44,0,2.44,1z M271.8,48l-1.56-6.2l-8.68,0l-1.56,6.2l-6.12,0l8.52-27.68l7.16,0l8.48,27.68l-6.24,0z M262.68,37.44l6.44,0l-3.24-12.76z M286.48,20.32l0,27.68l-5.88,0l0-27.68l5.88,0z"></path></g><g data-name="container" data="container_num:19" fill="url(#gradient-19)" transform="translate(43.19999999999999, 85.36177777777777) scale(0.6968888888888889)"><path xmlns="http://www.w3.org/2000/svg" fill-rule="evenodd" d=" M0,0 H450 V329 H0,0 z M2,2 H448 V327 H2,2 z M6,6 H444 V323 H6 z M8,8 H442 V321 H6,8 z "></path></g><g data-name="icon" fill="url(#gradient-19)" data="id:7122702" transform="translate(153.22549383513166, 117.9920953730317) scale(0.9354816300788323)">
  
 <path d="m81.598 12.203h-63.195c-3.4453 0-6.25 2.8047-6.25 6.25v63.094c0 3.4453 2.8047 6.25 6.25 6.25h63.191c3.4453 0 6.25-2.8047 6.25-6.25l0.003906-63.094c0-3.4453-2.8047-6.25-6.25-6.25zm-44.676 51.879c1.1328 1.3008 0.99609 3.2773-0.30469 4.4062-0.59375 0.51562-1.3242 0.76562-2.0508 0.76562-0.87109 0-1.7422-0.36328-2.3594-1.0742l-14.035-16.133c-1.0234-1.1758-1.0234-2.9258 0-4.1016l14.035-16.133c1.1328-1.3047 3.1055-1.4414 4.4062-0.30469 1.3047 1.1328 1.4414 3.1055 0.30469 4.4062l-12.25 14.082 12.25 14.082zm22.797-34.848-13.465 43.387c-0.41797 1.3398-1.6523 2.1992-2.9844 2.1992-0.30469 0-0.62109-0.046874-0.92969-0.14062-1.6484-0.51172-2.5703-2.2617-2.0586-3.9102l13.465-43.387c0.51172-1.6484 2.2656-2.5781 3.9102-2.0586 1.6484 0.51172 2.5703 2.2617 2.0586 3.9102zm22.109 22.816-14.035 16.133c-0.61719 0.71094-1.4844 1.0742-2.3594 1.0742-0.72656 0-1.457-0.25-2.0508-0.76562-1.3047-1.1328-1.4414-3.1055-0.30469-4.4062l12.25-14.082-12.25-14.082c-1.1328-1.3008-0.99609-3.2773 0.30469-4.4062 1.3047-1.1328 3.2773-0.99609 4.4062 0.30469l14.035 16.133c1.0234 1.1758 1.0234 2.9258 0 4.1016z"></path>

  </g><g data-name="business_name" fill="url(#gradient-19)" data="id:310" transform="translate(105.24737467771399, 206.0627702686669) scale(0.7479682771479633)"><path d="M12.36,19.6l2.36,0l11.8,28.4l-2.96,0l-3.68-8.88l-12.76,0l-3.64,8.88l-3,0z M19.24,36.92l-5.72-14.04l-5.8,14.04l11.52,0z M30.16,18.8l2.72,0l0,24.48q0,1.56,0.56,2.04t1.36,0.48q0.72,0,1.44-0.16t1.24-0.32l0.48,2.2q-0.76,0.32-1.86,0.52t-1.9,0.2q-1.84,0-2.94-1.08t-1.1-2.96l0-25.4z M49.92,48.4q-2.24,0-4.16-0.86t-3.32-2.36t-2.18-3.46t-0.78-4.2q0-2.92,1.34-5.36t3.7-3.9t5.36-1.46q3.08,0,5.38,1.48t3.62,3.9t1.32,5.3l0,0.62t-0.04,0.46l-17.84,0q0.2,2.24,1.26,3.98t2.76,2.76t3.7,1.02q2.04,0,3.86-1.04t2.54-2.72l2.36,0.64q-0.64,1.48-1.96,2.68t-3.1,1.86t-3.82,0.66z M42.24,36.6l15.4,0q-0.16-2.28-1.22-4t-2.76-2.7t-3.74-0.98t-3.72,0.98t-2.74,2.72t-1.22,3.98z M65.04,27.16l6.12,8.16l0.32,0.6l0.32-0.6l6.08-8.16l3.08,0l-7.92,10.48l7.92,10.36l-3.08,0l-6.08-8.12l-0.32-0.56l-0.32,0.56l-6.08,8.12l-3.08,0l7.88-10.36l-7.88-10.48l3.04,0z  M120.48,48l0-23.12l-10.28,17.96l-1.76,0l-10.32-17.96l0,23.12l-2.8,0l0-28.4l2.88,0l11.08,19.44l11.16-19.44l2.84,0l0,28.4l-2.8,0z M128.16,42q0-1.96,1.12-3.38t3.1-2.2t4.58-0.78q1.52,0,3.16,0.24t2.92,0.72l0-1.76q0-2.64-1.56-4.2t-4.32-1.56q-1.68,0-3.3,0.62t-3.38,1.82l-1.04-1.92q2.04-1.4,4-2.1t4-0.7q3.84,0,6.08,2.2t2.24,6.08l0,9.64q0,0.56,0.24,0.82t0.76,0.3l0,2.16q-0.44,0.04-0.76,0.08t-0.48,0q-1-0.04-1.52-0.64t-0.56-1.28l-0.04-1.52q-1.4,1.8-3.64,2.78t-4.56,0.98q-2,0-3.62-0.86t-2.52-2.32t-0.9-3.22z M142.12,43.6q0.44-0.56,0.68-1.08t0.24-0.92l0-3.04q-1.36-0.52-2.82-0.8t-2.94-0.28q-2.92,0-4.72,1.16t-1.8,3.16q0,1.16,0.6,2.18t1.76,1.68t2.72,0.66q1.96,0,3.66-0.76t2.62-1.96z M162.04,29.56q-2.72,0.08-4.78,1.52t-2.9,3.96l0,12.96l-2.72,0l0-20.84l2.56,0l0,5q1.08-2.2,2.86-3.56t3.78-1.52q0.4-0.04,0.7-0.04t0.5,0.04l0,2.48z M173.72,48.4q-2.12,0-3.86-0.88t-2.98-2.4t-1.92-3.46t-0.68-4.06q0-2.2,0.76-4.14t2.1-3.44t3.16-2.36t3.9-0.86q2.44,0,4.5,1.26t3.22,3.18l0-4.08l2.44,0l0,29.36l-2.72,0l0-12.84q-3.08,4.72-7.92,4.72z M174.56,46q1.64,0,2.98-0.66t2.36-1.78t1.74-2.48l0-6.44q-0.12-1.08-0.8-2.06t-1.68-1.76t-2.16-1.2t-2.28-0.42q-1.72,0-3.1,0.72t-2.42,1.92t-1.6,2.72t-0.56,3.08q0,2.24,0.98,4.16t2.66,3.06t3.88,1.14z M190.16,39.4l0-12.24l2.72,0l0,11.76q0,3.56,1.22,5.32t3.62,1.76q1.6,0,3.1-0.7t2.66-2t1.76-3.02l0-13.12l2.72,0l0,17.56q0,0.56,0.24,0.82t0.72,0.3l0,2.16q-0.48,0.04-0.76,0.06t-0.52,0.02q-0.8-0.08-1.38-0.64t-0.62-1.36l-0.08-2.8q-1.36,2.4-3.7,3.76t-5.06,1.36q-3.28,0-4.96-2.28t-1.68-6.72z M223.12,48.4q-2.24,0-4.16-0.86t-3.32-2.36t-2.18-3.46t-0.78-4.2q0-2.92,1.34-5.36t3.7-3.9t5.36-1.46q3.08,0,5.38,1.48t3.62,3.9t1.32,5.3l0,0.62t-0.04,0.46l-17.84,0q0.2,2.24,1.26,3.98t2.76,2.76t3.7,1.02q2.04,0,3.86-1.04t2.54-2.72l2.36,0.64q-0.64,1.48-1.96,2.68t-3.1,1.86t-3.82,0.66z M215.44,36.6l15.4,0q-0.16-2.28-1.22-4t-2.76-2.7t-3.74-0.98t-3.72,0.98t-2.74,2.72t-1.22,3.98z M235.84,46.16l13.96-16.96l-13.64,0l0-2.04l16.72,0l0,1.84l-13.88,16.96l13.84,0l0,2.04l-17,0l0-1.84z"></path></g><g data-name="slogan" fill="url(#gradient-19)" data="id:312" transform="translate(132.6880250965435, 254.30567420531273) scale(0.40322605768772357)"><path d="M6.66015625,11.5625l0,28.4375l-3.59375,0l0-28.4375l3.59375,0z M16.25,24.35546875l0,3.0859375l-10.2734375,0l0-3.0859375l10.2734375,0z M17.87109375,11.5625l0,3.0859375l-11.89453125,0l0-3.0859375l11.89453125,0z M32.1875,36.38671875l0-11.46484375q0-1.25-0.380859375-2.01171875t-1.1328125-1.11328125t-1.884765625-0.3515625q-1.09375,0-1.884765625,0.44921875t-1.2109375,1.19140625t-0.419921875,1.640625l-3.45703125,0q0-1.1328125,0.498046875-2.24609375t1.435546875-2.021484375t2.255859375-1.4453125t2.958984375-0.537109375q1.953125,0,3.45703125,0.634765625t2.36328125,2.060546875t0.859375,3.7890625l0,10.4296875q0,1.0546875,0.166015625,2.24609375t0.478515625,2.05078125l0,0.3125l-3.57421875,0q-0.25390625-0.625-0.390625-1.669921875t-0.13671875-1.943359375z M32.734375,27.1875l0.0390625,2.5390625l-2.40234375,0q-1.23046875,0-2.236328125,0.2734375t-1.728515625,0.791015625t-1.103515625,1.279296875t-0.380859375,1.73828125q0,1.26953125,0.3515625,2.021484375t1.0546875,1.083984375t1.77734375,0.33203125q1.30859375,0,2.3046875-0.60546875t1.552734375-1.46484375t0.517578125-1.6015625l0.76171875,1.62109375q-0.078125,0.76171875-0.498046875,1.650390625t-1.162109375,1.69921875t-1.748046875,1.328125t-2.255859375,0.517578125q-1.8359375,0-3.212890625-0.703125t-2.138671875-2.0703125t-0.76171875-3.37890625q0-1.5234375,0.52734375-2.8125t1.5625-2.236328125t2.607421875-1.474609375t3.642578125-0.52734375l2.9296875,0z M51.25,34.58984375q0-0.80078125-0.390625-1.40625t-1.279296875-1.171875t-2.392578125-1.2109375q-1.46484375-0.60546875-2.626953125-1.201171875t-1.962890625-1.298828125t-1.220703125-1.630859375t-0.419921875-2.197265625t0.478515625-2.353515625t1.357421875-1.904296875t2.109375-1.279296875t2.75390625-0.458984375q2.16796875,0,3.69140625,0.83984375t2.333984375,2.294921875t0.810546875,3.271484375l-3.4375,0q0-0.87890625-0.390625-1.66015625t-1.15234375-1.279296875t-1.85546875-0.498046875q-1.15234375,0-1.875,0.41015625t-1.044921875,1.064453125t-0.322265625,1.435546875q0,0.5859375,0.166015625,1.005859375t0.576171875,0.78125t1.123046875,0.7421875t1.826171875,0.869140625q2.1484375,0.83984375,3.61328125,1.69921875t2.2265625,2.01171875t0.76171875,2.8515625q0,1.38671875-0.498046875,2.509765625t-1.416015625,1.923828125t-2.197265625,1.220703125t-2.861328125,0.419921875q-2.3828125,0-4.033203125-0.947265625t-2.5-2.48046875t-0.849609375-3.291015625l3.45703125,0q0.05859375,1.484375,0.673828125,2.3046875t1.494140625,1.1328125t1.7578125,0.3125q1.15234375,0,1.93359375-0.341796875t1.181640625-0.986328125t0.400390625-1.50390625z M66.953125,18.8671875l0,2.7734375l-9.86328125,0l0-2.7734375l9.86328125,0z M60.3125,13.73046875l3.45703125,0l0,21.03515625q0,1.07421875,0.263671875,1.62109375t0.673828125,0.72265625t0.87890625,0.17578125q0.3515625,0,0.78125-0.087890625t0.5859375-0.146484375l-0.01953125,2.94921875q-0.3515625,0.13671875-0.9375,0.263671875t-1.484375,0.126953125q-1.11328125,0-2.0703125-0.52734375t-1.54296875-1.767578125t-0.5859375-3.349609375l0-21.015625z M78.6328125,40.390625q-1.89453125,0-3.41796875-0.56640625t-2.59765625-1.728515625t-1.640625-2.939453125t-0.56640625-4.19921875l0-2.3828125q0-2.79296875,0.654296875-4.7265625t1.767578125-3.115234375t2.51953125-1.71875t2.890625-0.537109375q1.9921875,0,3.3984375,0.64453125t2.28515625,1.9140625t1.298828125,3.125t0.419921875,4.27734375l0,2.01171875l-13.203125,0l0-2.94921875l9.74609375,0l0-0.48828125q-0.078125-1.640625-0.439453125-2.890625t-1.181640625-1.962890625t-2.32421875-0.712890625q-0.95703125,0-1.767578125,0.322265625t-1.38671875,1.11328125t-0.8984375,2.177734375t-0.322265625,3.515625l0,2.3828125q0,1.69921875,0.322265625,2.919921875t0.95703125,2.01171875t1.5625,1.171875t2.119140625,0.380859375q1.73828125,0,2.87109375-0.673828125t1.97265625-1.728515625l1.81640625,2.16796875q-0.56640625,0.80078125-1.474609375,1.533203125t-2.2265625,1.19140625t-3.154296875,0.458984375z M100.078125,34.58984375q0-0.80078125-0.390625-1.40625t-1.279296875-1.171875t-2.392578125-1.2109375q-1.46484375-0.60546875-2.626953125-1.201171875t-1.962890625-1.298828125t-1.220703125-1.630859375t-0.419921875-2.197265625t0.478515625-2.353515625t1.357421875-1.904296875t2.109375-1.279296875t2.75390625-0.458984375q2.16796875,0,3.69140625,0.83984375t2.333984375,2.294921875t0.810546875,3.271484375l-3.4375,0q0-0.87890625-0.390625-1.66015625t-1.15234375-1.279296875t-1.85546875-0.498046875q-1.15234375,0-1.875,0.41015625t-1.044921875,1.064453125t-0.322265625,1.435546875q0,0.5859375,0.166015625,1.005859375t0.576171875,0.78125t1.123046875,0.7421875t1.826171875,0.869140625q2.1484375,0.83984375,3.61328125,1.69921875t2.2265625,2.01171875t0.76171875,2.8515625q0,1.38671875-0.498046875,2.509765625t-1.416015625,1.923828125t-2.197265625,1.220703125t-2.861328125,0.419921875q-2.3828125,0-4.033203125-0.947265625t-2.5-2.48046875t-0.849609375-3.291015625l3.45703125,0q0.05859375,1.484375,0.673828125,2.3046875t1.494140625,1.1328125t1.7578125,0.3125q1.15234375,0,1.93359375-0.341796875t1.181640625-0.986328125t0.400390625-1.50390625z M115.78125,18.8671875l0,2.7734375l-9.86328125,0l0-2.7734375l9.86328125,0z M109.140625,13.73046875l3.45703125,0l0,21.03515625q0,1.07421875,0.263671875,1.62109375t0.673828125,0.72265625t0.87890625,0.17578125q0.3515625,0,0.78125-0.087890625t0.5859375-0.146484375l-0.01953125,2.94921875q-0.3515625,0.13671875-0.9375,0.263671875t-1.484375,0.126953125q-1.11328125,0-2.0703125-0.52734375t-1.54296875-1.767578125t-0.5859375-3.349609375l0-21.015625z  M144.296875,36.93359375l0,3.06640625l-11.796875,0l0-3.06640625l11.796875,0z M133.14453125,11.5625l0,28.4375l-3.59375,0l0-28.4375l3.59375,0z M155.6640625,40.390625q-1.89453125,0-3.41796875-0.56640625t-2.59765625-1.728515625t-1.640625-2.939453125t-0.56640625-4.19921875l0-2.3828125q0-2.79296875,0.654296875-4.7265625t1.767578125-3.115234375t2.51953125-1.71875t2.890625-0.537109375q1.9921875,0,3.3984375,0.64453125t2.28515625,1.9140625t1.298828125,3.125t0.419921875,4.27734375l0,2.01171875l-13.203125,0l0-2.94921875l9.74609375,0l0-0.48828125q-0.078125-1.640625-0.439453125-2.890625t-1.181640625-1.962890625t-2.32421875-0.712890625q-0.95703125,0-1.767578125,0.322265625t-1.38671875,1.11328125t-0.8984375,2.177734375t-0.322265625,3.515625l0,2.3828125q0,1.69921875,0.322265625,2.919921875t0.95703125,2.01171875t1.5625,1.171875t2.119140625,0.380859375q1.73828125,0,2.87109375-0.673828125t1.97265625-1.728515625l1.81640625,2.16796875q-0.56640625,0.80078125-1.474609375,1.533203125t-2.2265625,1.19140625t-3.154296875,0.458984375z M177.20703125,36.38671875l0-11.46484375q0-1.25-0.380859375-2.01171875t-1.1328125-1.11328125t-1.884765625-0.3515625q-1.09375,0-1.884765625,0.44921875t-1.2109375,1.19140625t-0.419921875,1.640625l-3.45703125,0q0-1.1328125,0.498046875-2.24609375t1.435546875-2.021484375t2.255859375-1.4453125t2.958984375-0.537109375q1.953125,0,3.45703125,0.634765625t2.36328125,2.060546875t0.859375,3.7890625l0,10.4296875q0,1.0546875,0.166015625,2.24609375t0.478515625,2.05078125l0,0.3125l-3.57421875,0q-0.25390625-0.625-0.390625-1.669921875t-0.13671875-1.943359375z M177.75390625,27.1875l0.0390625,2.5390625l-2.40234375,0q-1.23046875,0-2.236328125,0.2734375t-1.728515625,0.791015625t-1.103515625,1.279296875t-0.380859375,1.73828125q0,1.26953125,0.3515625,2.021484375t1.0546875,1.083984375t1.77734375,0.33203125q1.30859375,0,2.3046875-0.60546875t1.552734375-1.46484375t0.517578125-1.6015625l0.76171875,1.62109375q-0.078125,0.76171875-0.498046875,1.650390625t-1.162109375,1.69921875t-1.748046875,1.328125t-2.255859375,0.517578125q-1.8359375,0-3.212890625-0.703125t-2.138671875-2.0703125t-0.76171875-3.37890625q0-1.5234375,0.52734375-2.8125t1.5625-2.236328125t2.607421875-1.474609375t3.642578125-0.52734375l2.9296875,0z M189.47265625,22.1875l0,17.8125l-3.45703125,0l0-21.1328125l3.33984375,0z M194.7265625,18.75l0.01953125,3.359375q-0.4296875-0.09765625-0.771484375-0.126953125t-0.791015625-0.029296875q-0.9765625,0-1.708984375,0.390625t-1.259765625,1.09375t-0.83984375,1.669921875t-0.4296875,2.119140625l-0.8984375,0.5859375q0-1.9140625,0.302734375-3.59375t0.947265625-2.978515625t1.650390625-2.03125t2.412109375-0.732421875q0.3125,0,0.771484375,0.087890625t0.595703125,0.185546875z M201.66015625,23.37890625l0,16.62109375l-3.45703125,0l0-21.1328125l3.26171875,0z M200.8203125,28.6328125l-1.40625-0.05859375q-0.01953125-2.16796875,0.498046875-4.013671875t1.484375-3.212890625t2.314453125-2.119140625t2.98828125-0.751953125q1.2890625,0,2.34375,0.419921875t1.796875,1.337890625t1.142578125,2.373046875t0.400390625,3.544921875l0,13.84765625l-3.45703125,0l0-13.88671875q0-1.66015625-0.361328125-2.666015625t-1.09375-1.46484375t-1.845703125-0.458984375q-1.015625,0-1.89453125,0.56640625t-1.533203125,1.5625t-1.015625,2.275390625t-0.361328125,2.705078125z M225.13671875,40.390625q-1.89453125,0-3.41796875-0.56640625t-2.59765625-1.728515625t-1.640625-2.939453125t-0.56640625-4.19921875l0-2.3828125q0-2.79296875,0.654296875-4.7265625t1.767578125-3.115234375t2.51953125-1.71875t2.890625-0.537109375q1.9921875,0,3.3984375,0.64453125t2.28515625,1.9140625t1.298828125,3.125t0.419921875,4.27734375l0,2.01171875l-13.203125,0l0-2.94921875l9.74609375,0l0-0.48828125q-0.078125-1.640625-0.439453125-2.890625t-1.181640625-1.962890625t-2.32421875-0.712890625q-0.95703125,0-1.767578125,0.322265625t-1.38671875,1.11328125t-0.8984375,2.177734375t-0.322265625,3.515625l0,2.3828125q0,1.69921875,0.322265625,2.919921875t0.95703125,2.01171875t1.5625,1.171875t2.119140625,0.380859375q1.73828125,0,2.87109375-0.673828125t1.97265625-1.728515625l1.81640625,2.16796875q-0.56640625,0.80078125-1.474609375,1.533203125t-2.2265625,1.19140625t-3.154296875,0.458984375z M239.78515625,22.1875l0,17.8125l-3.45703125,0l0-21.1328125l3.33984375,0z M245.0390625,18.75l0.01953125,3.359375q-0.4296875-0.09765625-0.771484375-0.126953125t-0.791015625-0.029296875q-0.9765625,0-1.708984375,0.390625t-1.259765625,1.09375t-0.83984375,1.669921875t-0.4296875,2.119140625l-0.8984375,0.5859375q0-1.9140625,0.302734375-3.59375t0.947265625-2.978515625t1.650390625-2.03125t2.412109375-0.732421875q0.3125,0,0.771484375,0.087890625t0.595703125,0.185546875z  M267.3828125,14.08203125l-7.7734375,25.91796875l-3.671875,0l9.16015625-28.4375l2.3046875,0z M273.671875,40l-7.7734375-25.91796875l-0.0390625-2.51953125l2.32421875,0l9.16015625,28.4375l-3.671875,0z M273.671875,29.47265625l0,3.0859375l-13.7109375,0l0-3.0859375l13.7109375,0z M284.47265625,10l0,30l-3.4375,0l0-30l3.4375,0z M293.65234375,18.8671875l0,21.1328125l-3.4375,0l0-21.1328125l3.4375,0z M290.01953125,13.26171875q0-0.87890625,0.48828125-1.484375t1.46484375-0.60546875t1.474609375,0.60546875t0.498046875,1.484375q0,0.83984375-0.498046875,1.435546875t-1.474609375,0.595703125t-1.46484375-0.595703125t-0.48828125-1.435546875z M304.58984375,36.73828125l4.53125-17.87109375l3.515625,0l-6.26953125,21.1328125l-2.28515625,0z M300.9375,18.8671875l4.7265625,17.96875l0.37109375,3.1640625l-2.265625,0l-6.34765625-21.1328125l3.515625,0z M323.7890625,40.390625q-1.89453125,0-3.41796875-0.56640625t-2.59765625-1.728515625t-1.640625-2.939453125t-0.56640625-4.19921875l0-2.3828125q0-2.79296875,0.654296875-4.7265625t1.767578125-3.115234375t2.51953125-1.71875t2.890625-0.537109375q1.9921875,0,3.3984375,0.64453125t2.28515625,1.9140625t1.298828125,3.125t0.419921875,4.27734375l0,2.01171875l-13.203125,0l0-2.94921875l9.74609375,0l0-0.48828125q-0.078125-1.640625-0.439453125-2.890625t-1.181640625-1.962890625t-2.32421875-0.712890625q-0.95703125,0-1.767578125,0.322265625t-1.38671875,1.11328125t-0.8984375,2.177734375t-0.322265625,3.515625l0,2.3828125q0,1.69921875,0.322265625,2.919921875t0.95703125,2.01171875t1.5625,1.171875t2.119140625,0.380859375q1.73828125,0,2.87109375-0.673828125t1.97265625-1.728515625l1.81640625,2.16796875q-0.56640625,0.80078125-1.474609375,1.533203125t-2.2265625,1.19140625t-3.154296875,0.458984375z"></path></g></svg>